<?xml version="1.0" standalone="no"?>
<!DOCTYPE svg PUBLIC "-//W3C//DTD SVG 20010904//EN"
 "http://www.w3.org/TR/2001/REC-SVG-20010904/DTD/svg10.dtd">
<svg version="1.0" xmlns="http://www.w3.org/2000/svg"
 width="200.000000pt" height="200.000000pt" viewBox="0 0 200.000000 200.000000"
 preserveAspectRatio="xMidYMid meet">
<metadata>
Created by potrace 1.16, written by Peter Selinger 2001-2019
</metadata>
<g transform="translate(0.000000,200.000000) scale(0.100000,-0.100000)"
fill="#000000" stroke="none">
<path d="M857 1506 c-101 -28 -190 -120 -228 -235 -17 -50 -20 -80 -17 -145 8
-142 82 -257 205 -318 55 -27 79 -33 155 -36 83 -4 92 -3 152 27 80 39 157
120 199 208 29 62 32 77 32 163 0 84 -3 102 -28 152 -35 72 -110 140 -185 168
-73 28 -217 36 -285 16z m278 -55 c109 -49 175 -147 183 -271 3 -60 0 -86 -18
-133 -31 -83 -104 -174 -167 -210 l-53 -29 0 53 c0 43 9 71 46 145 47 95 65
166 45 178 -17 11 -50 -12 -66 -47 -14 -30 -15 -25 -11 82 3 65 1 122 -5 133
-15 28 -37 21 -44 -14 -14 -72 -20 -72 -25 0 -7 82 -27 115 -54 92 -12 -9 -16
-34 -18 -99 -1 -84 -1 -84 -7 -25 -7 70 -25 101 -49 82 -12 -10 -14 -33 -10
-118 5 -110 4 -112 -15 -33 -9 37 -16 48 -32 48 -24 0 -24 -16 -5 -185 10 -92
19 -128 46 -184 36 -74 42 -106 22 -106 -32 0 -117 52 -156 94 -71 77 -96 144
-97 251 0 79 3 96 28 143 48 91 109 148 187 173 14 5 70 7 125 6 78 -2 111 -8
150 -26z m-141 -47 c10 -26 7 -106 -4 -99 -5 3 -10 -4 -10 -16 0 -18 2 -19 15
-9 13 11 15 6 15 -33 0 -46 15 -71 26 -43 3 8 12 12 20 9 10 -4 14 -23 14 -69
0 -52 3 -65 19 -74 29 -15 32 -13 29 17 -2 19 2 28 12 28 8 0 16 8 18 19 3 13
0 16 -10 10 -9 -5 -9 -2 2 11 14 17 15 17 19 0 5 -30 -50 -156 -87 -197 -20
-22 -41 -60 -48 -86 l-13 -47 0 43 c-1 36 -4 43 -18 40 -14 -2 -19 -17 -24
-58 -5 -52 -6 -53 -7 -12 -2 34 -10 51 -41 85 -21 23 -43 52 -50 64 -17 33
-25 137 -13 159 6 10 12 13 12 7 0 -15 30 -18 30 -3 0 6 7 10 15 10 8 0 15 7
15 15 0 9 -7 18 -15 21 -8 4 -15 16 -15 28 0 17 2 18 10 6 8 -12 10 -8 11 15
2 26 3 24 8 -10 4 -27 12 -41 24 -43 15 -3 17 5 17 67 0 39 6 81 13 92 10 17
10 23 0 26 -15 5 -18 43 -4 43 5 0 12 -7 15 -16z"/>
<path d="M940 1132 c0 -6 6 -13 13 -15 7 -4 6 -6 -4 -6 -9 -1 -22 -8 -29 -16
-10 -12 -16 -13 -27 -4 -7 7 -16 9 -20 6 -3 -4 1 -9 10 -13 15 -5 15 -8 1 -30
-15 -22 -14 -24 18 -44 24 -16 44 -20 76 -17 50 5 98 42 82 62 -6 7 -9 19 -7
26 2 8 2 11 0 7 -3 -5 -14 -1 -26 7 -12 8 -28 15 -36 15 -8 0 -23 7 -33 17
-10 9 -18 11 -18 5z"/>
</g>
</svg>
